<?xml version="1.0" ?><!-- Uploaded to: SVG Repo, www.svgrepo.com, Generator: SVG Repo Mixer Tools -->
<svg width="800px" height="800px" viewBox="0 0 24 24" fill="none" xmlns="http://www.w3.org/2000/svg"><path d="M6 10L6.72147 5.6712C6.8822 4.70683 7.71658 4 8.69425 4H15.3057C16.2834 4 17.1178 4.70683 17.2785 5.6712L18 10M6 10H18M6 10C4.89543 10 4 10.8954 4 12V14C4 15.1046 4.89543 16 6 16M18 10C19.1046 10 20 10.8954 20 12V14C20 15.1046 19.1046 16 18 16M18 16H6M18 16L17.9999 17.5001C17.9999 18.3284 17.3283 19 16.4999 19C15.6715 19 15 18.3284 15 17.5001V16H18ZM6 16V17.5001C6 18.3284 6.67155 19 7.49995 19C8.32835 19 8.9999 18.3284 8.9999 17.5001V16H6Z" stroke="#464455"/></svg>