<?xml version="1.0" encoding="utf-8"?><!-- Uploaded to: SVG Repo, www.svgrepo.com, Generator: SVG Repo Mixer Tools -->
<svg width="800px" height="800px" viewBox="0 0 24 24" fill="none" xmlns="http://www.w3.org/2000/svg">
<path d="M14 13C14 14.1046 13.1046 15 12 15M17 6H17.01M17 13C17 15.7614 14.7614 18 12 18C9.23858 18 7 15.7614 7 13C7 10.2386 9.23858 8 12 8C14.7614 8 17 10.2386 17 13ZM6 21H18C19.1046 21 20 20.1046 20 19V5C20 3.89543 19.1046 3 18 3H6C4.89543 3 4 3.89543 4 5V19C4 20.1046 4.89543 21 6 21Z" stroke="#000000" stroke-width="2" stroke-linecap="round" stroke-linejoin="round"/>
</svg>