<?xml version="1.0" ?>
<!DOCTYPE svg  PUBLIC '-//W3C//DTD SVG 1.1//EN'  'http://www.w3.org/Graphics/SVG/1.1/DTD/svg11.dtd'>
<!-- Uploaded to: SVG Repo, www.svgrepo.com, Generator: SVG Repo Mixer Tools -->
<svg fill="#000000" width="800px" height="800px" viewBox="0 0 64 64" style="fill-rule:evenodd;clip-rule:evenodd;stroke-linejoin:round;stroke-miterlimit:2;" version="1.1" xml:space="preserve" xmlns="http://www.w3.org/2000/svg" xmlns:serif="http://www.serif.com/" xmlns:xlink="http://www.w3.org/1999/xlink">
<g id="Expanded">
<path d="M8.025,6l0,52c0,0.796 0.316,1.559 0.879,2.121c0.563,0.563 1.326,0.879 2.121,0.879c7.562,-0 34.356,-0 41.917,-0c0.796,0 1.559,-0.316 2.121,-0.879c0.563,-0.562 0.879,-1.325 0.879,-2.121l-0,-52c-0,-0.796 -0.316,-1.559 -0.879,-2.121c-0.562,-0.563 -1.325,-0.879 -2.121,-0.879c-7.561,-0 -34.355,-0 -41.917,-0c-0.795,-0 -1.558,0.316 -2.121,0.879c-0.563,0.562 -0.879,1.325 -0.879,2.121Zm43.084,39.083c-0,-1.657 -1.344,-3 -3,-3l-32.25,0c-1.657,0 -3,1.343 -3,3l-0,9.292c-0,1.657 1.343,3 3,3l32.25,-0c1.656,-0 3,-1.343 3,-3l-0,-9.292Zm-2,0l-0,9.292c-0,0.552 -0.448,1 -1,1c-0,-0 -32.25,-0 -32.25,-0c-0.553,-0 -1,-0.448 -1,-1l-0,-9.292c-0,-0.552 0.447,-1 1,-1c-0,0 32.25,0 32.25,0c0.552,0 1,0.448 1,1Zm-17.125,8.667c2.219,-0 4.02,-1.802 4.02,-4.021c0,-2.219 -1.801,-4.021 -4.02,-4.021c-2.22,0 -4.021,1.802 -4.021,4.021c-0,2.219 1.801,4.021 4.021,4.021Zm15.5,-4.021c-0,-2.219 -1.802,-4.021 -4.021,-4.021c-2.219,0 -4.021,1.802 -4.021,4.021c-0,2.219 1.802,4.021 4.021,4.021c2.219,-0 4.021,-1.802 4.021,-4.021Zm-31,0c-0,2.219 1.801,4.021 4.02,4.021c2.22,-0 4.021,-1.802 4.021,-4.021c0,-2.219 -1.801,-4.021 -4.021,-4.021c-2.219,0 -4.02,1.802 -4.02,4.021Zm28.735,-1c-0.348,-0.609 -1.005,-1.021 -1.756,-1.021c-1.116,0 -2.021,0.906 -2.021,2.021c-0,1.115 0.905,2.021 2.021,2.021c0.751,-0 1.408,-0.411 1.756,-1.021l-1.152,0c-0.552,0 -1,-0.448 -1,-1c-0,-0.552 0.448,-1 1,-1l1.152,0Zm-26.471,2c0.348,0.61 1.005,1.021 1.756,1.021c1.116,-0 2.021,-0.906 2.021,-2.021c0,-1.115 -0.905,-2.021 -2.021,-2.021c-0.751,0 -1.408,0.412 -1.756,1.021l1.152,0c0.552,0 1,0.448 1,1c0,0.552 -0.448,1 -1,1l-1.152,0Zm14.236,0.756c0.609,-0.348 1.02,-1.004 1.02,-1.756c0,-1.115 -0.905,-2.021 -2.02,-2.021c-1.116,0 -2.021,0.906 -2.021,2.021c-0,0.752 0.411,1.408 1.021,1.756l-0,-1.152c-0,-0.552 0.448,-1 1,-1c0.552,0 1,0.448 1,1l-0,1.152Zm-1,-41.235c7.45,-0 13.5,6.049 13.5,13.5c-0,7.451 -6.05,13.5 -13.5,13.5c-7.451,-0 -13.5,-6.049 -13.5,-13.5c-0,-7.451 6.049,-13.5 13.5,-13.5Zm0.142,13.501c-0.836,-0.629 -1.874,-1.001 -3,-1.001c-2.759,-0 -5,2.24 -5,5c0,2.76 2.241,5 5,5c2.76,-0 5,-2.24 5,-5l0,-9.169c1.078,0.822 2.665,1.433 4.901,1.009c0.542,-0.103 0.899,-0.627 0.796,-1.169c-0.103,-0.542 -0.626,-0.899 -1.169,-0.796c-3.414,0.647 -4.598,-2.243 -4.598,-2.243c-0.176,-0.446 -0.645,-0.704 -1.117,-0.614c-0.471,0.09 -0.813,0.502 -0.813,0.982l0,8.001Zm-3,0.999c1.656,-0 3,1.344 3,3c0,1.656 -1.344,3 -3,3c-1.655,-0 -3,-1.344 -3,-3c0,-1.656 1.345,-3 3,-3Zm17.767,3.25l7.049,-0l-0,-9l-7.201,-0c0.482,1.498 0.743,3.094 0.743,4.75c-0,1.473 -0.206,2.899 -0.591,4.25Zm-29.667,-9l-7.201,-0l0,9l7.05,-0c-0.385,-1.351 -0.591,-2.777 -0.591,-4.25c-0,-1.656 0.26,-3.252 0.742,-4.75Zm-4.242,-12c0.552,-0 1,0.448 1,1c-0,0.552 -0.448,1 -1,1c-0.552,-0 -1,-0.448 -1,-1c-0,-0.552 0.448,-1 1,-1Zm38.125,-0c0.552,-0 1,0.448 1,1c-0,0.552 -0.448,1 -1,1c-0.552,-0 -1,-0.448 -1,-1c-0,-0.552 0.448,-1 1,-1Z"/>
</g>
</svg>