<?xml version="1.0" encoding="utf-8"?>

<!DOCTYPE svg PUBLIC "-//W3C//DTD SVG 1.1//EN" "http://www.w3.org/Graphics/SVG/1.1/DTD/svg11.dtd">
<!-- Uploaded to: SVG Repo, www.svgrepo.com, Generator: SVG Repo Mixer Tools -->
<svg version="1.1" id="_x32_" xmlns="http://www.w3.org/2000/svg" xmlns:xlink="http://www.w3.org/1999/xlink" 
	 width="800px" height="800px" viewBox="0 0 512 512"  xml:space="preserve">
<style type="text/css">
<![CDATA[
	.st0{fill:#000000;}
]]>
</style>
<g>
	<path class="st0" d="M83.344,19.781C37.313,19.781,0,65.844,0,117.828c0,31.641,14.875,59.547,33.063,76.906
		C49.031,210,58.828,221.75,60.781,247.25v244.969h45.109V247.25c1.953-25.5,11.766-37.25,27.734-52.516
		c18.188-17.359,33.063-45.266,33.063-76.906C166.688,65.844,129.359,19.781,83.344,19.781z"/>
	<path class="st0" d="M328.391,54.188v89c0,5.688-4.609,10.297-10.297,10.297h-2.75c-5.688,0-10.297-4.609-10.297-10.297V53.781
		c0-14.688-9.859-19.063-19.328-19.063s-19.344,4.375-19.344,19.063v89.406c0,5.688-4.609,10.297-10.281,10.297h-2.75
		c-5.688,0-10.281-4.609-10.281-10.297v-89c0-26.281-37.469-25.375-37.469,0.281c0,30.719,0,84.984,0,84.984
		c-0.156,47.219,11.109,59.453,29.75,74.172c15,11.844,27.813,18.641,27.813,48.047v230.547h45.125V261.672
		c0-29.406,12.813-36.203,27.813-48.047c18.625-14.719,29.906-26.953,29.734-74.172c0,0,0-54.266,0-84.984
		C365.828,28.813,328.391,27.906,328.391,54.188z"/>
	<path class="st0" d="M454.672,63.047c-8.172,27.297-32.75,90.063-38.891,145.344c-6.125,55.266,22.531,73.688,40.938,104.391
		l10.172,25.609v153.828h44.891H512c0-7.547,0-138.297,0-230.031c0-90.766,0-183.203,0-199.141
		C512,30.281,466.969,22.094,454.672,63.047z"/>
</g>
</svg>