<?xml version="1.0" encoding="utf-8"?>

<!DOCTYPE svg PUBLIC "-//W3C//DTD SVG 1.1//EN" "http://www.w3.org/Graphics/SVG/1.1/DTD/svg11.dtd">
<!-- Uploaded to: SVG Repo, www.svgrepo.com, Generator: SVG Repo Mixer Tools -->
<svg height="800px" width="800px" version="1.1" id="_x32_" xmlns="http://www.w3.org/2000/svg" xmlns:xlink="http://www.w3.org/1999/xlink" 
	 viewBox="0 0 512 512"  xml:space="preserve">
<style type="text/css">
	.st0{fill:#000000;}
</style>
<g>
	<path class="st0" d="M511.904,253.069c-1.554-48.548-44.377-84.942-104.409-88.656c-120.865-7.486-109.51-67.345-209.664-73.722
		c-5.642-0.361-11.206-0.536-16.662-0.536c-102.294,0-171.103,61.839-180.098,137.418c-0.548,4.591-0.839,9.124-0.968,13.612H0
		v52.824h0.31c3.218,66.926,53.423,119.234,135.051,121.51c48.123,1.342,182.039,5.082,224.552,6.268
		c69.628,1.94,136.722-44.738,149.856-104.255c0.87-3.94,1.419-7.815,1.767-11.639H512v-52.824H511.904z M483.976,270.015
		c-10.169,46.098-63.947,83.595-119.866,83.595c-1.154,0-2.308-0.02-3.462-0.046l-56.247-1.574l-168.305-4.694
		c-36.877-1.032-66.784-13.638-86.496-36.458c-18.042-20.898-25.967-49.361-22.304-80.144
		c7.996-67.196,71.272-114.127,153.874-114.127c4.913,0,9.956,0.162,14.985,0.484c40.514,2.579,58.118,14.489,80.41,29.578
		c27.553,18.642,58.788,39.779,129.299,44.144c29.797,1.844,54.784,13.387,68.557,31.655
		C484.569,235.897,487.877,252.353,483.976,270.015z"/>
	<path class="st0" d="M338.827,236.587l-101.03-7.222c-10.969-0.786-20.957-6.596-27.05-15.746l-27.257-40.882
		c-3.037-4.553-9.182-5.784-13.734-2.747c-4.553,3.037-5.784,9.182-2.747,13.734l12.522,18.784
		c5.474,8.215,7.287,18.338,5.004,27.946c-2.283,9.608-8.454,17.829-17.043,22.704l-38.947,22.104
		c-4.759,2.702-6.43,8.744-3.728,13.502c2.702,4.759,8.744,6.43,13.502,3.728l69.48-39.431c6.1-3.469,13.09-5.043,20.086-4.546
		l109.535,7.828c5.455,0.387,10.188-3.72,10.582-9.176C348.39,241.714,344.289,236.974,338.827,236.587z"/>
</g>
</svg>