<?xml version="1.0" encoding="UTF-8"?>
<!-- Uploaded to: SVG Repo, www.svgrepo.com, Generator: SVG Repo Mixer Tools -->
<svg width="800px" height="800px" viewBox="0 0 60.601 60.601" version="1.1" xmlns="http://www.w3.org/2000/svg" xmlns:cc="http://creativecommons.org/ns#" xmlns:dc="http://purl.org/dc/elements/1.1/" xmlns:rdf="http://www.w3.org/1999/02/22-rdf-syntax-ns#">
 <metadata>
  <rdf:RDF>
   <cc:Work rdf:about="">
    <dc:format>image/svg+xml</dc:format>
    <dc:type rdf:resource="http://purl.org/dc/dcmitype/StillImage"/>
    <dc:title/>
    <dc:source>http://www.mlit.go.jp/common/001245686.pdf</dc:source>
   </cc:Work>
  </rdf:RDF>
 </metadata>
 <path d="m7.7855 56.032c-1.7762 0-3.2162-1.44-3.2162-3.2162v-45.03c0-1.7762 1.44-3.2162 3.2162-3.2162h45.031c1.775 0 3.215 1.44 3.215 3.2162v45.03c0 1.7762-1.44 3.2162-3.215 3.2162h-45.031z" style="fill:#ffffff;stroke-width:.60625;stroke:#000"/>
 <path d="m43.686 42.623c-1.4462 0-2.6175-1.1738-2.6175-2.6175 0-1.4475 1.1712-2.6188 2.6175-2.6188 1.4438 0 2.6175 1.1712 2.6175 2.6188 0 1.4438-1.1738 2.6175-2.6175 2.6175zm-19.098 0c-1.445 0-2.6175-1.1738-2.6175-2.6175 0-1.4475 1.1725-2.6188 2.6175-2.6188 1.4462 0 2.6175 1.1712 2.6175 2.6188 0 1.4438-1.1712 2.6175-2.6175 2.6175zm0.30375-13.666 0.07875-0.0088c3.03-0.315 6.1138-0.475 9.1662-0.475 3.0538 0 6.1388 0.16 9.17 0.47625l0.07875 0.0087 1.7988 6.26h-22.1l1.8075-6.2612zm21.878 6.2612-2.2-7.665c-3.4212-0.4025-6.9038-0.60875-10.432-0.60875-3.53 0-7.0112 0.20625-10.432 0.60875l-2.2012 7.665c-1.32 0-2.3838 1.07-2.3838 2.39v8.9088h2.3662l-0.0012 3.805c0.57875 0.20875 1.1888 0.325 1.8412 0.325 0.64125 0 1.27-0.11 1.84-0.315v-3.8162l17.94-0.0038v3.81c0.58 0.20875 1.1888 0.325 1.8412 0.325 0.64125 0 1.2688-0.11 1.84-0.315l0.0012-3.82h2.375v-8.9038c0-1.32-1.0725-2.39-2.3938-2.39"/>
 <path d="m16.538 19.054h1.4438c1.9262 0 3.4605-0.69225 3.4605-2.8882 0-2.1367-1.5344-2.8289-3.4605-2.8289h-1.4438zm-5.5965-9.688h6.6792c6.4087 0 9.4175 2.1667 9.4175 6.8897 0 4.2427-3.0987 6.7698-8.3342 6.7698h-2.166v7.3415h-5.5965v-21.001"/>
</svg>