<?xml version="1.0" encoding="UTF-8"?>
<!-- Uploaded to: SVG Repo, www.svgrepo.com, Generator: SVG Repo Mixer Tools -->
<svg width="800px" height="800px" viewBox="0 0 24 24" version="1.1" xmlns="http://www.w3.org/2000/svg" xmlns:xlink="http://www.w3.org/1999/xlink">
    <title>Party</title>
    <g id="Page-1" stroke="none" stroke-width="1" fill="none" fill-rule="evenodd">
        <g id="Party">
            <rect id="Rectangle" fill-rule="nonzero" x="0" y="0" width="24" height="24">

</rect>
            <path d="M4.05024,19.9498 C4.75734,20.6569 5.46444989,20.6569 6.52511,20.3033 L16.9745,14.9203 C17.5768,14.61 17.7027,13.8033 17.2237,13.3242 L10.6758,6.77632 C10.1967,6.29726 9.38998,6.42319 9.07971,7.02547 L3.69668,17.4749 C3.34313,18.5355 3.34313,19.2426 4.05024,19.9498 Z" id="Path" stroke="#0C0310" stroke-width="2" stroke-linecap="round">

</path>
            <path d="M18,6 L19.3675,5.31623 C19.6787,5.16066 19.746,4.74598 19.5,4.5 L19.5,4.5 C19.254,4.25402 19.3213,3.83934 19.6325,3.68377 L21,3" id="Path" stroke="#0C0310" stroke-width="2" stroke-linecap="round">

</path>
            <line x1="16" y1="8" x2="16.125" y2="8" id="Path" stroke="#0C0310" stroke-width="2" stroke-linecap="round">

</line>
            <line x1="19.375" y1="11.5" x2="19.5" y2="11.5" id="Path" stroke="#0C0310" stroke-width="2" stroke-linecap="round">

</line>
            <line x1="12" y1="4" x2="11" y2="2.5" id="Path" stroke="#0C0310" stroke-width="2" stroke-linecap="round">

</line>
            <line x1="15.5" y1="4.5" x2="16" y2="2" id="Path" stroke="#0C0310" stroke-width="2" stroke-linecap="round">

</line>
            <line x1="22" y1="9" x2="19.5" y2="8.5" id="Path" stroke="#0C0310" stroke-width="2" stroke-linecap="round">

</line>
            <line x1="12" y1="8.5" x2="12" y2="17.5" id="Path" stroke="#0C0310" stroke-width="2" stroke-linecap="round">

</line>
            <line x1="8" y1="9.5" x2="8" y2="19.5" id="Path" stroke="#0C0310" stroke-width="2" stroke-linecap="round">

</line>
        </g>
    </g>
</svg>