<?xml version="1.0" encoding="utf-8"?><!-- Uploaded to: SVG Repo, www.svgrepo.com, Generator: SVG Repo Mixer Tools -->
<svg width="800px" height="800px" viewBox="0 0 400 400" fill="none" xmlns="http://www.w3.org/2000/svg">
<path d="M156.253 45.9907C173.496 10.9738 228.362 44.0054 211.222 76.6884C191.88 113.572 149.186 89.4613 149.186 57.2218" stroke="#000000" stroke-opacity="0.9" stroke-width="16" stroke-linecap="round" stroke-linejoin="round"/>
<path d="M152.327 111.695C148.351 166.897 147.768 223.654 124.985 274.916" stroke="#000000" stroke-opacity="0.9" stroke-width="16" stroke-linecap="round" stroke-linejoin="round"/>
<path d="M144.861 120.81C94.6489 169.208 116.799 192.928 173.859 157.265" stroke="#000000" stroke-opacity="0.9" stroke-width="16" stroke-linecap="round" stroke-linejoin="round"/>
<path d="M208.117 113.352C246.841 150.573 222.226 164.918 208.117 211.948" stroke="#000000" stroke-opacity="0.9" stroke-width="16" stroke-linecap="round" stroke-linejoin="round"/>
<path d="M109.791 58.666C153.588 138.128 208.687 213.375 248.985 293.971" stroke="#000000" stroke-opacity="0.5" stroke-width="16" stroke-linecap="round" stroke-linejoin="round"/>
<path d="M291.09 293.647C288.615 291.957 286.182 290.219 283.691 288.56C280.027 286.117 273.887 284.891 275.365 291.797C276.436 296.786 286.945 305.671 281.84 305.671C278.738 305.671 270.635 286.442 264.729 290.873C258.713 295.382 278.26 312.608 270.74 312.608C266.438 312.608 257.976 293.461 253.165 298.272C247.477 303.96 263.942 327.546 258.254 321.861C244.057 307.661 232.886 303.375 240.679 330.646" stroke="#000000" stroke-opacity="0.5" stroke-width="16" stroke-linecap="round" stroke-linejoin="round"/>
<path d="M205.709 113.768C199.822 165.323 198.425 221.887 214.959 271.484" stroke="#000000" stroke-opacity="0.9" stroke-width="16" stroke-linecap="round" stroke-linejoin="round"/>
<path d="M156.838 255.763C156.823 292.921 157.907 336.621 153.14 370" stroke="#000000" stroke-opacity="0.9" stroke-width="16" stroke-linecap="round" stroke-linejoin="round"/>
<path d="M190.142 257.146C188.632 292.538 197.872 340.12 187.367 369.536" stroke="#000000" stroke-opacity="0.9" stroke-width="16" stroke-linecap="round" stroke-linejoin="round"/>
</svg>