<?xml version='1.0' encoding='UTF-8' standalone='no'?>
<!-- Uploaded to: SVG Repo, www.svgrepo.com, Generator: SVG Repo Mixer Tools -->
<svg width="800px" height="800px" viewBox="0 0 60.601004 60.601004" xmlns:cc="http://creativecommons.org/ns#" xmlns:dc="http://purl.org/dc/elements/1.1/" xmlns:rdf="http://www.w3.org/1999/02/22-rdf-syntax-ns#" xmlns:svg="http://www.w3.org/2000/svg" version="1.1" xmlns="http://www.w3.org/2000/svg">
  <defs/>
  <metadata>
    <rdf:RDF>
      <cc:Work rdf:about="">
        <dc:format>image/svg+xml</dc:format>
        <dc:type rdf:resource="http://purl.org/dc/dcmitype/StillImage"/>
        <dc:title>喫煙所; Smoking area</dc:title>
        <dc:source>http://www.ecomo.or.jp/barrierfree/pictogram/data/zukigo_panfu_jis110.pdf</dc:source>
      </cc:Work>
    </rdf:RDF>
  </metadata>
  <path d="m 7.7861263,56.03238 c -1.7762506,0 -3.2175006,-1.44125 -3.2175006,-3.216251 l 0,-45.0300033 c 0,-1.7775 1.44125,-3.2175 3.2175006,-3.2175 l 45.0300037,0 c 1.77625,0 3.21625,1.44 3.21625,3.2175 l 0,45.0300033 c 0,1.775001 -1.44,3.216251 -3.21625,3.216251 l -45.0300037,0 z" style="fill:#ffffff;fill-opacity:1;stroke:#000000;stroke-width:0.60625005;stroke-linecap:butt;stroke-linejoin:miter;stroke-miterlimit:4;stroke-dasharray:none;stroke-opacity:1"/>
  <path d="m 10.488626,38.743629 0,5.6625 33.978752,0 0,-5.6625 -33.978752,0 z" style="fill:#000000;fill-opacity:1;fill-rule:nonzero;stroke:none"/>
  <path d="m 45.409878,38.743629 0,5.6625 1.887501,0 0,-5.6625 -1.887501,0 z" style="fill:#000000;fill-opacity:1;fill-rule:nonzero;stroke:none"/>
  <path d="m 48.241129,38.743629 0,5.6625 1.8875,0 0,-5.6625 -1.8875,0 z" style="fill:#000000;fill-opacity:1;fill-rule:nonzero;stroke:none"/>
  <path d="m 47.072379,21.521128 -4.86375,0 0.27,-0.93125 c 0.12375,-0.3975 0.205,-0.985 0.205,-1.225 0,-2.8425 -2.303751,-5.146251 -5.146251,-5.146251 l -3.2425,0 -0.86125,3.216251 3.93875,0 c 1.42125,0 2.5725,1.1525 2.5725,2.5725 0,0.255 -0.0375,0.49875 -0.10625,0.73125 l -0.61,2.06 c -0.02625,0.0875 -0.04,0.17875 -0.04,0.27375 0,0.5325 0.4325,0.965 0.965,0.965 l 6.171251,0 c 1.38875,0 2.51625,1.1275 2.51625,2.5175 0,0.03375 -0.0012,0.06625 -0.0025,0.1 l -0.40625,9.840001 1.2125,0 1.3275,-10.548751 c 0.02125,-0.16125 0.03125,-0.32625 0.03125,-0.4925 0,-2.1725 -1.76,-3.9325 -3.93125,-3.9325" style="fill:#000000;fill-opacity:1;fill-rule:nonzero;stroke:none"/>
  <path d="m 46.347379,36.494879 0.8925,0 0,-5.73375 c 0,-1.563751 -1.26875,-2.831251 -2.8325,-2.831251 l -5.142501,0 c -2.72,0 -4.9525,-2.0925 -5.1725,-4.75625 -0.02875,-0.33125 -0.30375,-0.5925 -0.64125,-0.5925 l -1.4225,0 c -3.99625,0 -7.236251,-3.24 -7.236251,-7.236251 0,-1.505 0.46125,-2.90125 1.25,-4.06 l -3.72125,0 c -0.58875,1.23 -0.91625,2.6075 -0.91625,4.06 0,5.213751 4.225,9.438751 9.437501,9.438751 l 0.72,0 c 1.13625,2.945 3.9925,5.03375 7.3375,5.03375 l 5.143751,0 c 0.9875,0 1.79625,0.758751 1.87875,1.723751 l 0.425,4.95375" style="fill:#000000;fill-opacity:1;fill-rule:nonzero;stroke:none"/>
</svg>