<?xml version="1.0" encoding="utf-8"?>
<!-- Uploaded to: SVG Repo, www.svgrepo.com, Generator: SVG Repo Mixer Tools -->
<svg width="800px" height="800px" viewBox="0 0 1024 1024" fill="#000000" class="icon"  version="1.1" xmlns="http://www.w3.org/2000/svg"><path d="M70.4 772c-13.6 0-24-10.4-24-24V140.8c0-13.6 10.4-24 24-24h882.4c13.6 0 24 10.4 24 24v607.2c0 16-11.2 24-22.4 24H70.4z m24-44h836V166.4H94.4V728z" fill="" /><path d="M733.6 662.4c-13.6 0-24-10.4-24-24s10.4-24 24-24h93.6c13.6 0 24 10.4 24 24s-12.8 24-24 24H733.6zM512 884c-13.6 0-24-10.4-24-24V758.4c0-13.6 10.4-24 24-24s24 10.4 24 24v103.2c-0.8 12-11.2 22.4-24 22.4z" fill="" /><path d="M316 904.8c-13.6 0-24-10.4-24-24s10.4-24 24-24h392.8c13.6 0 24 10.4 24 24s-12.8 24-24 24H316z" fill="" /></svg>