<?xml version="1.0" encoding="iso-8859-1"?>
<!-- Uploaded to: SVG Repo, www.svgrepo.com, Generator: SVG Repo Mixer Tools -->
<!DOCTYPE svg PUBLIC "-//W3C//DTD SVG 1.1//EN" "http://www.w3.org/Graphics/SVG/1.1/DTD/svg11.dtd">
<svg fill="#000000" height="800px" width="800px" version="1.1" id="Capa_1" xmlns="http://www.w3.org/2000/svg" xmlns:xlink="http://www.w3.org/1999/xlink" 
	 viewBox="0 0 362.849 362.849" xml:space="preserve">
<path d="M225.773,362.849H86.06c-1.082,0-2.134-0.351-3-1c-0.364-0.273-9.058-6.911-20.643-25.867
	c-8.653-14.159-23.169-44.323-23.169-87.251c0-29.334,12.508-59.5,22.558-83.739c3.116-7.515,6.058-14.612,8.33-20.947
	c8.97-25.022,14.494-87.429,14.985-93.149c-0.125-0.931-0.846-5.012-4.769-15.604C75.616,22.504,63.968,8.327,63.851,8.186
	c-1.329-1.608-1.521-3.874-0.479-5.682c1.042-1.808,3.102-2.777,5.154-2.437l104.02,17.337l68.386,12.247
	c2.539,0.455,4.315,2.767,4.102,5.337c-0.026,0.307-1.624,19.599-2.808,40.095c10.078-1.986,29.458-4.021,44.315,5.214
	c22.14,13.762,36.559,75.224,37.033,104.104c0.466,28.445-5.114,46.005-18.095,56.936c-8.894,7.49-25.012,13.164-29.905,14.776
	c-1.968,60.288-44.417,103.423-46.265,105.271C228.37,362.322,227.099,362.849,225.773,362.849z M87.917,352.849h135.698
	c7.401-8.083,42.029-48.719,42.029-101.059c0-30.934-9.195-53.79-18.087-75.894c-8.53-21.203-16.586-41.231-16.586-66.878
	c0-11.067,0.746-26.315,1.601-40.168L94.409,59.189c-1.805,18.84-6.944,66.151-14.86,88.23c-2.354,6.564-5.341,13.771-8.505,21.402
	c-9.71,23.42-21.795,52.566-21.795,79.909c0,40.48,13.597,68.773,21.702,82.036C79.008,343.952,85.394,350.518,87.917,352.849z
	 M241.673,85.433c-0.418,8.63-0.703,16.941-0.703,23.586c0,23.711,7.706,42.866,15.864,63.146
	c8.651,21.505,17.578,43.698,18.693,73.385c6.136-2.197,17.32-6.648,23.509-11.86c7.046-5.935,15.067-16.88,14.538-49.123
	c-0.536-32.683-16.609-86.015-32.313-95.776C268.031,80.566,249.136,83.715,241.673,85.433z M94.975,49.204l138.245,9.667
	c0.576-8.481,1.131-15.746,1.481-20.177l-63.859-11.437l-91.795-15.3c3.763,5.582,8.064,12.79,10.683,19.859
	C93.406,41.742,94.599,46.797,94.975,49.204z M87.082,323.076c-1.707,0-3.369-0.874-4.303-2.448
	c-0.736-1.242-18.036-30.851-18.036-68.838c0-37.78,19.076-77.038,19.889-78.69c1.218-2.477,4.212-3.501,6.69-2.282
	c2.478,1.217,3.501,4.212,2.285,6.69c-0.188,0.385-18.864,38.865-18.864,74.282c0,35.151,16.473,63.459,16.64,63.741
	c1.403,2.376,0.617,5.441-1.758,6.847C88.826,322.852,87.948,323.076,87.082,323.076z"/>
</svg>