<?xml version="1.0" standalone="no"?>
<!DOCTYPE svg PUBLIC "-//W3C//DTD SVG 20010904//EN"
 "http://www.w3.org/TR/2001/REC-SVG-20010904/DTD/svg10.dtd">
<svg version="1.0" xmlns="http://www.w3.org/2000/svg"
 width="500.000000pt" height="500.000000pt" viewBox="0 0 500.000000 500.000000"
 preserveAspectRatio="xMidYMid meet">
<metadata>
Created by potrace 1.14, written by Peter Selinger 2001-2017
</metadata>
<g transform="translate(0.000000,500.000000) scale(0.100000,-0.100000)"
fill="#000000" stroke="none">
<path d="M2340 3873 c-154 -24 -330 -96 -432 -176 -306 -240 -431 -614 -327
-986 21 -77 70 -184 114 -249 29 -42 24 -47 -47 -57 -46 -7 -51 -11 -51 -45 0
-12 125 -193 357 -517 1 -1 84 21 186 48 102 27 280 75 395 105 116 31 242 64
280 75 39 10 103 27 142 38 l73 19 88 -142 c48 -77 94 -141 102 -141 8 0 14 6
12 13 -1 8 2 11 8 7 6 -3 7 -11 4 -17 -9 -14 71 31 96 54 25 23 29 15 -118
251 l-109 173 34 40 c52 60 116 161 150 239 27 63 35 86 49 148 2 9 7 27 10
40 10 37 14 280 5 317 -4 19 -14 60 -21 90 -32 139 -123 295 -238 409 -88 88
-142 127 -241 176 -121 60 -229 86 -371 89 -69 2 -136 2 -150 -1z"/>
<path d="M720 1702 c-86 -5 -87 -7 -88 -190 0 -167 6 -192 50 -192 28 0 58 18
58 36 0 8 4 13 8 10 5 -3 9 1 9 9 0 8 -5 11 -10 8 -6 -4 -7 8 -3 30 5 24 3 37
-6 40 -12 5 26 11 46 8 19 -4 97 42 92 55 -3 8 2 11 15 9 13 -3 17 0 12 8 -4
6 -8 20 -8 31 -2 19 -2 19 13 0 14 -18 14 -18 7 1 -15 42 -14 54 3 49 13 -4
13 -3 -2 6 -15 10 -20 9 -27 -1 -11 -18 -11 -6 0 24 9 22 7 24 -12 19 -20 -5
-21 -4 -7 14 8 10 10 16 6 12 -5 -4 -16 -2 -24 5 -13 9 -14 9 -8 0 4 -7 2 -13
-3 -13 -6 0 -11 5 -11 11 0 6 -6 9 -12 6 -7 -2 -20 -2 -28 2 -8 3 -40 5 -70 3z
m75 -113 c8 -25 8 -25 -30 -35 -28 -7 -29 -6 -15 11 8 10 10 16 3 12 -14 -9
-27 8 -18 23 11 19 53 11 60 -11z"/>
<path d="M1609 1699 c-17 -4 -35 -11 -40 -16 -8 -8 -12 -121 -10 -285 1 -47 5
-59 22 -68 28 -16 75 -3 93 24 13 21 13 25 -4 44 -16 17 -17 21 -4 26 8 3 12
2 9 -3 -3 -5 -1 -12 4 -15 5 -4 8 2 7 11 -2 10 -8 18 -14 18 -6 0 -14 4 -19 9
-4 5 -3 6 3 3 7 -4 14 1 16 11 4 13 14 18 39 17 19 -1 43 5 53 14 16 13 18 13
11 1 -6 -11 -5 -12 4 -4 7 6 11 27 9 45 l-3 34 -58 -2 c-55 -1 -58 0 -53 21 5
20 5 20 -9 2 -8 -11 -15 -15 -15 -9 0 20 25 31 75 34 66 3 75 7 76 33 0 20 1
20 8 2 5 -14 10 -16 15 -8 4 7 4 12 -1 12 -4 0 -1 5 7 10 13 8 12 10 -2 10
-10 0 -18 4 -18 10 0 19 -137 32 -201 19z m71 -323 c0 -2 -7 -7 -16 -10 -8 -3
-12 -2 -9 4 6 10 25 14 25 6z"/>
<path d="M2558 1700 c-31 -3 -62 -10 -69 -17 -7 -7 -12 -65 -13 -168 -2 -201
-4 -197 112 -194 85 2 152 19 152 39 0 5 8 6 17 3 12 -5 15 -2 10 10 -3 9 -3
16 1 16 22 -4 30 3 27 20 -3 15 0 18 13 14 14 -6 15 -4 5 8 -7 9 -8 20 -3 29
5 8 6 18 3 24 -3 5 -1 6 6 2 6 -4 8 -12 5 -18 -4 -6 -2 -8 3 -5 6 4 8 22 3 46
-4 25 -3 44 4 51 6 7 7 11 1 10 -30 -6 -38 1 -19 15 18 14 18 14 -3 10 -13 -2
-26 1 -29 7 -4 7 -2 8 4 4 7 -4 12 -3 12 3 0 5 -7 14 -17 19 -10 6 -14 16 -10
26 6 14 3 15 -14 5 -15 -8 -19 -8 -15 0 4 6 2 11 -4 11 -6 0 -8 6 -4 13 4 6 4
9 -1 5 -4 -4 -15 -2 -23 5 -13 9 -14 9 -8 0 4 -7 2 -13 -3 -13 -6 0 -11 5 -11
11 0 5 -4 8 -9 5 -5 -4 -12 0 -14 6 -4 10 -6 10 -6 1 -1 -8 -8 -10 -23 -5 -13
4 -49 5 -80 2z m114 -101 c23 -12 48 -67 43 -95 -2 -10 -4 -25 -4 -32 -1 -7
-12 -24 -26 -37 -18 -19 -35 -25 -70 -25 -29 0 -44 4 -40 10 4 6 11 8 16 5 5
-3 6 1 3 9 -3 9 -9 14 -13 12 -9 -6 -7 57 3 72 4 7 2 12 -4 12 -6 0 -8 5 -5
10 4 6 10 8 15 5 4 -3 6 11 3 30 -4 34 -3 35 27 35 17 0 40 -5 52 -11z m-88
-25 c3 -8 2 -12 -4 -9 -6 3 -10 10 -10 16 0 14 7 11 14 -7z"/>
<path d="M2592 1514 c-7 -8 -8 -14 -3 -14 10 0 25 19 20 25 -2 1 -10 -3 -17
-11z"/>
<path d="M2586 1481 c-3 -5 2 -15 12 -22 15 -12 16 -12 5 2 -7 9 -10 19 -6 22
3 4 4 7 0 7 -3 0 -8 -4 -11 -9z"/>
<path d="M2961 1700 c-31 -4 -58 -12 -65 -21 -17 -24 -14 -322 3 -343 19 -23
202 -23 225 0 9 8 19 13 23 11 5 -3 8 5 8 18 0 13 -2 22 -4 20 -9 -10 -41 17
-34 28 5 9 3 9 -9 0 -8 -7 -17 -11 -19 -9 -3 3 -27 6 -55 7 -46 2 -51 5 -50
25 2 30 7 34 47 38 60 7 92 18 77 27 -10 7 -8 9 6 9 20 0 20 0 0 15 -14 11
-15 14 -3 9 10 -3 20 0 25 7 4 8 3 10 -5 5 -6 -4 -22 -1 -34 6 -12 8 -39 13
-60 12 -34 -2 -37 -1 -25 13 12 14 11 15 -9 5 -17 -10 -21 -9 -19 3 3 22 7 23
61 26 28 1 62 8 76 15 29 15 57 44 41 44 -6 0 -13 -6 -15 -12 -3 -8 -6 -5 -6
5 -1 11 -6 16 -13 12 -7 -4 -5 0 6 9 18 15 18 15 0 15 -11 0 -41 1 -69 3 -27
2 -74 1 -104 -2z"/>
<path d="M3278 1700 c-27 -3 -53 -11 -59 -17 -8 -8 -11 -66 -11 -174 0 -145 2
-164 18 -176 25 -18 54 -16 71 5 8 9 11 11 7 3 -4 -9 -3 -12 4 -7 11 7 9 36
-4 59 -4 6 3 3 16 -8 l24 -20 -23 33 c-13 18 -20 36 -17 39 3 4 6 1 6 -6 0 -7
3 -10 8 -7 4 2 23 -19 43 -47 33 -48 38 -52 73 -51 21 1 42 8 47 15 13 20 11
31 -3 23 -10 -6 -10 -5 -1 7 9 11 8 18 -1 31 -7 10 -16 15 -19 11 -4 -3 -7 1
-7 10 0 10 -4 17 -9 17 -19 0 -18 47 1 59 10 6 16 16 13 21 -3 5 0 12 6 16 8
4 9 3 5 -4 -5 -8 -2 -10 9 -6 9 4 13 9 11 12 -3 3 0 12 7 20 8 10 8 13 1 9 -7
-4 -14 0 -18 8 -3 8 0 17 6 21 7 5 8 2 3 -6 -6 -9 -4 -11 5 -5 10 6 10 11 -3
20 -20 14 -22 35 -5 35 6 0 8 3 5 6 -4 4 -14 1 -23 -7 -16 -13 -16 -12 -4 11
12 23 12 24 -4 11 -14 -12 -16 -12 -11 2 4 8 1 18 -6 23 -8 5 -10 3 -4 -7 7
-12 6 -12 -7 -1 -22 18 -95 28 -150 22z m90 -119 c3 -20 0 -23 -17 -18 -12 3
-19 1 -15 -4 3 -5 -1 -9 -8 -9 -8 0 -14 9 -15 20 -1 11 4 20 10 20 7 0 6 4 -3
11 -12 7 -8 9 15 7 23 -2 31 -9 33 -27z"/>
<path d="M4031 1701 c-7 -5 -21 -7 -30 -4 -24 6 -44 -21 -81 -115 -34 -86 -44
-100 -56 -81 -5 8 -3 9 6 4 9 -6 10 -2 5 15 -5 17 -4 21 5 15 9 -5 11 -4 6 4
-4 6 -12 8 -18 5 -7 -5 -9 2 -4 20 5 22 3 26 -16 26 -19 0 -20 2 -8 10 12 8
12 10 1 10 -9 0 -12 9 -9 28 3 19 0 29 -9 29 -6 0 -10 -4 -7 -9 9 -15 -3 -8
-17 9 -8 10 -9 14 -2 10 6 -4 14 -3 17 2 9 14 -61 23 -84 11 -11 -6 -20 -19
-20 -30 0 -24 109 -300 127 -321 17 -20 103 -18 103 2 0 5 -6 7 -12 3 -8 -4
-10 -3 -5 2 5 5 14 9 20 9 5 0 12 6 15 14 3 8 0 11 -7 7 -6 -4 -11 -2 -11 3 0
6 7 11 15 11 8 0 15 7 15 16 0 8 -4 12 -10 9 -16 -10 -11 1 7 16 15 12 16 12
8 -1 -4 -8 -4 -12 0 -7 14 12 15 37 2 38 -7 0 -1 5 13 11 15 6 20 12 13 15
-19 7 -16 23 3 23 14 0 15 2 3 17 -12 14 -12 16 0 8 11 -6 13 -4 7 10 -5 15
-4 16 9 5 14 -12 14 -10 5 15 -7 20 -8 31 0 39 5 5 10 6 10 1 0 -5 6 0 14 10
12 17 12 25 1 52 -7 17 -11 34 -7 37 8 9 -1 7 -17 -3z"/>
<path d="M1066 1670 c-89 -46 -123 -159 -76 -250 55 -108 222 -133 326 -48 22
17 30 28 19 25 -17 -6 -18 -5 -4 5 10 9 13 21 9 38 -4 14 -3 33 3 44 6 12 6
16 -1 12 -5 -3 -12 1 -15 9 -4 10 -1 12 11 9 14 -5 15 -4 2 4 -10 8 -18 8 -27
0 -9 -7 -13 -7 -13 0 0 15 -154 9 -174 -7 -20 -17 -21 -45 -2 -61 8 -6 35 -12
60 -13 47 -1 59 -10 30 -21 -26 -10 -84 -7 -84 5 0 5 -5 7 -12 3 -8 -5 -9 -2
-4 11 5 15 4 16 -9 5 -18 -15 -17 -17 -19 45 -2 35 -6 49 -15 47 -18 -4 26 50
52 65 33 19 81 15 110 -7 14 -11 33 -20 44 -20 31 0 63 12 57 21 -3 5 0 17 6
28 11 22 -3 40 -16 20 -5 -8 -3 -9 6 -4 9 5 11 4 6 -4 -4 -6 -12 -9 -17 -5 -5
3 -7 10 -4 15 4 5 -5 14 -19 21 -14 6 -26 17 -26 25 0 7 -5 13 -11 13 -5 0 -7
-4 -4 -10 4 -6 -4 -6 -21 0 -43 17 -115 8 -168 -20z m7 -165 c-3 -9 -8 -14
-10 -11 -3 3 -2 9 2 15 9 16 15 13 8 -4z"/>
<path d="M1895 1677 c-21 -33 -20 -320 1 -342 16 -16 46 -20 58 -7 4 4 13 7
19 7 16 0 20 67 5 78 -9 6 -8 7 4 3 10 -3 20 -1 23 4 4 6 -1 10 -10 10 -9 0
-13 5 -10 10 3 6 1 10 -6 10 -7 0 -9 3 -6 6 4 4 12 2 19 -4 10 -8 13 -4 14 16
1 15 -1 21 -3 15 -3 -7 -9 -13 -14 -13 -6 0 -7 5 -3 11 3 6 0 16 -7 21 -10 7
-8 8 8 5 21 -5 22 -4 8 16 -13 18 -12 22 3 34 15 13 15 13 -8 8 -14 -4 -20 -3
-14 2 6 4 11 23 12 41 0 18 6 39 12 47 8 9 8 15 0 20 -9 6 -14 -1 -11 -17 0
-5 -3 -8 -9 -8 -12 0 -13 6 -1 28 8 15 4 18 -30 19 -31 1 -43 -3 -54 -20z"/>
<path d="M2066 1684 c-22 -21 -22 -327 0 -349 19 -19 51 -19 84 0 22 13 23 14
5 15 -19 1 -19 2 2 12 21 10 22 12 5 24 -16 13 -16 15 0 28 17 12 16 14 -5 25
-15 8 -16 10 -3 6 15 -4 17 -3 7 9 -10 11 -8 17 6 25 10 6 13 11 7 11 -7 0
-15 8 -18 18 -3 9 6 4 20 -13 150 -172 156 -177 192 -171 41 6 59 20 41 31 -8
6 -10 4 -4 -5 5 -9 4 -11 -4 -6 -14 9 -3 29 13 23 21 -8 12 65 -14 114 -5 11
-4 16 6 16 7 0 10 -5 7 -10 -3 -6 -1 -7 5 -3 6 4 9 13 5 21 -3 8 1 15 8 15 7
0 9 3 6 6 -4 4 -13 2 -20 -5 -12 -9 -14 -7 -12 13 2 13 6 32 9 43 3 10 2 33
-3 51 -6 20 -6 30 0 27 12 -8 11 6 0 25 -13 20 -80 18 -95 -2 -7 -10 -12 -44
-11 -82 2 -55 -1 -65 -17 -69 -10 -3 -16 -1 -12 4 3 5 0 9 -6 9 -6 0 -9 4 -6
9 3 4 -6 13 -19 19 -17 8 -23 17 -20 32 3 17 0 20 -17 14 -12 -3 -18 -2 -15 3
4 6 -8 24 -25 42 -21 22 -25 29 -12 25 10 -4 16 -4 12 1 -14 15 -87 15 -102
-1z m354 -264 c0 -5 -2 -10 -4 -10 -3 0 -8 5 -11 10 -3 6 -1 10 4 10 6 0 11
-4 11 -10z"/>
<path d="M4180 1678 c-42 -29 -62 -65 -50 -89 10 -17 55 -31 66 -20 3 3 11 6
17 6 7 0 11 7 10 15 -2 10 6 16 22 16 33 2 42 -29 19 -64 -16 -25 -101 -130
-115 -142 -14 -12 -18 -43 -8 -62 10 -18 19 -19 119 -16 77 2 113 7 122 17 8
8 8 11 1 7 -12 -6 -11 7 2 37 4 10 5 21 1 24 -3 4 -6 -2 -6 -12 0 -17 -1 -17
-18 -2 -10 9 -33 17 -51 19 -29 2 -30 4 -15 15 10 7 22 13 27 13 5 0 6 7 3 16
-3 8 -2 12 4 9 6 -3 10 0 10 7 0 15 36 49 43 41 5 -4 2 23 -3 37 -7 16 -3 38
8 56 10 17 10 21 -3 21 -8 0 -11 -5 -8 -11 4 -6 2 -7 -3 -3 -5 5 -10 21 -10
35 -2 37 -2 36 -21 21 -14 -12 -16 -12 -11 2 3 9 1 16 -5 17 -112 14 -112 14
-147 -10z"/>
<path d="M1300 1676 c0 -2 7 -7 16 -10 8 -3 12 -2 9 4 -6 10 -25 14 -25 6z"/>
<path d="M2235 1590 c-3 -5 -1 -10 4 -10 6 0 11 5 11 10 0 6 -2 10 -4 10 -3 0
-8 -4 -11 -10z"/>
<path d="M4030 1590 c0 -5 5 -10 11 -10 5 0 7 5 4 10 -3 6 -8 10 -11 10 -2 0
-4 -4 -4 -10z"/>
<path d="M4388 1583 c7 -3 16 -2 19 1 4 3 -2 6 -13 5 -11 0 -14 -3 -6 -6z"/>
<path d="M2416 1553 c-6 -14 -5 -15 5 -6 7 7 10 15 7 18 -3 3 -9 -2 -12 -12z"/>
<path d="M4385 1560 c-3 -5 -1 -10 4 -10 6 0 11 5 11 10 0 6 -2 10 -4 10 -3 0
-8 -4 -11 -10z"/>
</g>
</svg>
